<svg version="1.1" width="1600" height="1600" style="shape-rendering:geometricPrecision;text-rendering:geometricPrecision;image-rendering:optimizeQuality;fill-rule:evenodd;clip-rule:evenodd" id="svg53" xmlns="http://www.w3.org/2000/svg"><g id="g54"><g id="g3" transform="translate(2.54 -4.69)"><path fill="#003592" d="M185.5 33.5c405.5-.33 810.83 0 1216 1-402-.17-804 0-1206 .5.53.7 1.2 1.2 2 1.5a64.3 64.3 0 0 0 6.5-1 89159.06 89159.06 0 0 0 1191 0c2.74.78 5.41 1.12 8 1l2.5-.5a3.3 3.3 0 0 1-2-1.5l8-1c58.66 6.16 103.16 34.5 133.5 85a185 185 0 0 1 21 68c.67 408.33.67 816.67 0 1225-7.94 63.73-40.44 110.23-97.5 139.5a160.97 160.97 0 0 1-58 15c-408 .67-816 .67-1224 0-48.28-5.52-87.78-27.02-118.5-64.5a165.17 165.17 0 0 1-33.5-82c-1-411.33-1.32-822.66-1-1234v-6a26.75 26.75 0 0 0 2-10c10.86-49.54 37.86-87.7 81-114.5a164.74 164.74 0 0 1 69-21.5z" id="path3" style="opacity:1"/></g><g id="g53" transform="translate(2236.55 -116.28)"><g id="g18" transform="translate(-2236.81 119.87)" style="fill:#fff;fill-opacity:1"><path id="path18" style="opacity:1;fill:#fff;fill-opacity:1" d="M431.5 794.5c-10 .67-20.16 1-30.5 1-10.52 0-20.69-.67-30.5-2a4283.68 4283.68 0 0 1 46.5-65 990.56 990.56 0 0 1 14.5 66zm-150-57c-.08 3.28.59 6.28 2 9 3.3 21.06 6.97 42.06 11 63-.2 3 .46 5.66 2 8-.16 1.7 0 3.37.5 5 33-47.33 65.5-95 97.5-143 19.34-.33 38.68 0 58 1a688.83 688.83 0 0 0 6 25 5172.03 5172.03 0 0 0 27.5 124 5321.7 5321.7 0 0 1 37.5-149 702.8 702.8 0 0 1 53-1l9 36c-.09 2.65.58 4.99 2 7l24 96c-.09 2.65.58 4.99 2 7 .31 1.24.81 1.24 1.5 0 36.3-48.47 72.8-96.8 109.5-145 18.03-.65 35.7.01 53 2a2987.48 2987.48 0 0 1-14 60 2130.5 2130.5 0 0 0-5 18c-.54.06-.88.4-1 1 25.68.34 51.01 1.34 76 3-3.27 13.3-6.43 26.63-9.5 40a19.93 19.93 0 0 1-8.5 1c-22.67-.17-45.34 0-68 .5a25.15 25.15 0 0 0-3 11.5 1668.65 1668.65 0 0 0-16 63h-42v-3c10.16-40.97 20-81.97 29.5-123-30.66 42.16-61.5 84.16-92.5 126h-47a4.61 4.61 0 0 0-1-4c-9.2-39.75-18.7-79.42-28.5-119a8359.47 8359.47 0 0 0-30.5 123h-69c-2.4-14.98-4.74-29.98-7-45-33.34-.17-66.67 0-100 .5a1597.94 1597.94 0 0 0-31 44c-16.68.83-33.34.67-50-.5a10345.68 10345.68 0 0 0-32-171 349.01 349.01 0 0 0-46-10 718.6 718.6 0 0 1 4-20c28.66.64 57.33.98 86 1a889.22 889.22 0 0 0 10 58z"/></g><g id="g31" transform="translate(-2016.2 -624.36)" style="fill:none;fill-opacity:1;stroke:#fff;stroke-width:4;stroke-dasharray:none;stroke-opacity:1"><path id="path31" style="opacity:1;fill:none;fill-opacity:1;stroke:#fff;stroke-width:4;stroke-dasharray:none;stroke-opacity:1" d="M832.02 1538.86a164.3 164.3 0 0 1-26 2c-8.84 0-17.51-.34-26-1a2754.46 2754.46 0 0 1 40.5-56c4 18.32 7.83 36.66 11.5 55zm-199-114h46v4c-.08 3.28.59 6.28 2 9l1 8c-.08 3.28.59 6.28 2 9 4 20.6 7.66 41.28 11 62-.08 3.28.59 6.28 2 9 2 12 4.17 24 6.5 36l94.5-136.5a641.4 641.4 0 0 1 62 .5 23649.6 23649.6 0 0 0 30.5 137 2667.5 2667.5 0 0 0 26.5-105 11.16 11.16 0 0 0 2-7c1.56-9 3.9-17.67 7-26h58a4.62 4.62 0 0 0 1 4 85.44 85.44 0 0 0 5 18 183.21 183.21 0 0 0 8 34 2529.37 2529.37 0 0 0 22.5 86 20841.9 20841.9 0 0 0 106.5-141 916.19 916.19 0 0 1 60-1 68617.62 68617.62 0 0 1-51 207h-49v-3c8.54-33.96 17.04-67.96 25.5-102a40.84 40.84 0 0 0 1-9 7322.21 7322.21 0 0 1-83.5 113.5c-17.24.82-34.41.65-51.5-.5l-27-112a6670.27 6670.27 0 0 0-27.5 110c-.9.7-1.24 1.7-1 3h-73a1038.5 1038.5 0 0 0-8-44 1155.38 1155.38 0 0 0-96 0 12.8 12.8 0 0 0-3 6 749.73 749.73 0 0 0-27 37.5c-18 .66-36 .66-54 0a85.84 85.84 0 0 1-3-13.5 157.92 157.92 0 0 0-5-25c-4.4-24.99-8.74-49.99-13-75 .08-3.29-.59-6.29-2-9l-9-50a4201.26 4201.26 0 0 1-48-10 93.13 93.13 0 0 0 4-18 10.77 10.77 0 0 0 2-6h45z"/></g></g></g></svg>
