<?xml version="1.0" encoding="UTF-8"?>
<!DOCTYPE svg PUBLIC "-//W3C//DTD SVG 1.1//EN" "http://www.w3.org/Graphics/SVG/1.1/DTD/svg11.dtd">
<svg xmlns="http://www.w3.org/2000/svg" version="1.1" width="1600px" height="1600px" style="shape-rendering:geometricPrecision; text-rendering:geometricPrecision; image-rendering:optimizeQuality; fill-rule:evenodd; clip-rule:evenodd" xmlns:xlink="http://www.w3.org/1999/xlink">
<g><path style="opacity:1" fill="#f6f6f6" d="M -0.5,-0.5 C 532.833,-0.5 1066.17,-0.5 1599.5,-0.5C 1599.5,532.833 1599.5,1066.17 1599.5,1599.5C 1066.17,1599.5 532.833,1599.5 -0.5,1599.5C -0.5,1066.17 -0.5,532.833 -0.5,-0.5 Z"/></g>
<g><path style="opacity:1" fill="#2e2e2e" d="M 181.5,32.5 C 593.167,31.1667 1004.83,31.1667 1416.5,32.5C 1413.81,32.3359 1411.15,32.5026 1408.5,33C 1411.04,33.1862 1413.37,33.6862 1415.5,34.5C 1008.18,33.5055 600.842,33.1722 193.5,33.5C 192.5,33.5 191.5,33.5 190.5,33.5C 187.713,32.5233 184.713,32.19 181.5,32.5 Z"/></g>
<g><path style="opacity:1" fill="#f6f6f6" d="M 193.5,33.5 C 600.842,33.1722 1008.18,33.5055 1415.5,34.5C 1482.25,44.4474 1528.75,80.4474 1555,142.5C 1560.67,159.028 1564.17,176.028 1565.5,193.5C 1565.83,600.842 1565.49,1008.18 1564.5,1415.5C 1555.01,1478.02 1522.01,1523.18 1465.5,1551C 1449.19,1558.05 1432.19,1562.55 1414.5,1564.5C 1007.51,1565.5 600.51,1565.83 193.5,1565.5C 126.357,1559.03 77.8567,1525.7 48,1465.5C 40.9517,1449.19 36.4517,1432.19 34.5,1414.5C 33.1678,1004.16 33.1678,593.831 34.5,183.5C 42.6602,126.543 71.3268,83.3759 120.5,54C 138.378,44.3954 157.378,38.2287 177.5,35.5C 183.021,35.2181 188.354,34.5514 193.5,33.5 Z"/></g>
<g><path style="opacity:1" fill="#a6a6a6" d="M 190.5,33.5 C 191.5,33.5 192.5,33.5 193.5,33.5C 188.354,34.5514 183.021,35.2181 177.5,35.5C 181.567,33.9462 185.9,33.2796 190.5,33.5 Z"/></g>
<g><path style="opacity:1" fill="#2b2b2b" d="M 181.5,32.5 C 184.713,32.19 187.713,32.5233 190.5,33.5C 185.9,33.2796 181.567,33.9462 177.5,35.5C 157.378,38.2287 138.378,44.3954 120.5,54C 71.3268,83.3759 42.6602,126.543 34.5,183.5C 33.6862,185.631 33.1862,187.964 33,190.5C 32.5026,187.854 32.3359,185.187 32.5,182.5C 40.6365,124.051 70.3032,80.2174 121.5,51C 140.318,41.0958 160.318,34.9292 181.5,32.5 Z"/></g>
<g><path style="opacity:1" fill="#242424" d="M 1416.5,32.5 C 1471.74,40.0356 1514.24,67.369 1544,114.5C 1558.16,138.176 1565.99,163.842 1567.5,191.5C 1567.67,596.833 1567.5,1002.17 1567,1407.5C 1566.83,1002.67 1566.33,598 1565.5,193.5C 1564.17,176.028 1560.67,159.028 1555,142.5C 1528.75,80.4474 1482.25,44.4474 1415.5,34.5C 1413.37,33.6862 1411.04,33.1862 1408.5,33C 1411.15,32.5026 1413.81,32.3359 1416.5,32.5 Z"/></g>
<g><path style="opacity:1" fill="#4f4f4f" d="M 1567.5,191.5 C 1568.17,394.166 1568.5,597 1568.5,800C 1568.33,1002.83 1568.17,1205.67 1568,1408.5C 1567.81,1411.04 1567.31,1413.37 1566.5,1415.5C 1566.66,1414.13 1566.49,1412.79 1566,1411.5C 1565.79,1413.06 1565.29,1414.39 1564.5,1415.5C 1565.49,1008.18 1565.83,600.842 1565.5,193.5C 1566.33,598 1566.83,1002.67 1567,1407.5C 1567.5,1002.17 1567.67,596.833 1567.5,191.5 Z"/></g>
<g><path style="opacity:1" fill="#414141" d="M 32.5,182.5 C 32.3359,185.187 32.5026,187.854 33,190.5C 33.1862,187.964 33.6862,185.631 34.5,183.5C 33.1678,593.831 33.1678,1004.16 34.5,1414.5C 33.6829,1412.03 33.1829,1409.36 33,1406.5C 32.502,1409.48 32.3354,1412.48 32.5,1415.5C 31.6787,1412.36 31.1787,1409.03 31,1405.5C 30.3333,1000.83 30.3333,596.167 31,191.5C 31.1805,188.305 31.6805,185.305 32.5,182.5 Z"/></g>
<g><path style="opacity:1" fill="#6296c8" d="M 868.5,676.5 C 851.833,676.5 835.167,676.5 818.5,676.5C 818.737,677.791 818.404,678.791 817.5,679.5C 817.5,678.167 817.5,676.833 817.5,675.5C 834.675,675.17 851.675,675.503 868.5,676.5 Z"/></g>
<g><path style="opacity:1" fill="#235c8d" d="M 1214.5,678.5 C 1194.83,677.167 1175.17,677.167 1155.5,678.5C 1164.98,677.168 1174.81,676.501 1185,676.5C 1195.19,676.501 1205.02,677.168 1214.5,678.5 Z"/></g>
<g><path style="opacity:1" fill="#215b8f" d="M 1416.5,679.5 C 1407.36,678.168 1397.86,677.502 1388,677.5C 1378.5,677.667 1369,677.833 1359.5,678C 1358.59,680.415 1356.92,681.915 1354.5,682.5C 1356,680.825 1357.34,678.992 1358.5,677C 1378.16,676.5 1397.83,676.333 1417.5,676.5C 1417.74,677.791 1417.4,678.791 1416.5,679.5 Z"/></g>
<g><path style="opacity:1" fill="#1259a1" d="M 868.5,676.5 C 882.167,676.5 895.833,676.5 909.5,676.5C 913.992,701.47 918.326,726.47 922.5,751.5C 922.42,754.781 923.087,757.781 924.5,760.5C 927.514,777.89 930.847,795.223 934.5,812.5C 965.996,767.494 997.329,722.328 1028.5,677C 1049.17,676.167 1069.84,676.334 1090.5,677.5C 1100.53,723.19 1110.69,768.857 1121,814.5C 1132.83,769.111 1144.33,723.777 1155.5,678.5C 1175.17,677.167 1194.83,677.167 1214.5,678.5C 1226.16,725.311 1238.33,771.978 1251,818.5C 1285.75,773.266 1320.25,727.933 1354.5,682.5C 1356.92,681.915 1358.59,680.415 1359.5,678C 1369,677.833 1378.5,677.667 1388,677.5C 1397.86,677.502 1407.36,678.168 1416.5,679.5C 1410.01,709.829 1402.68,739.829 1394.5,769.5C 1392.26,765.875 1391.26,761.875 1391.5,757.5C 1396.85,733.753 1402.51,710.086 1408.5,686.5C 1409.43,685.432 1409.77,684.099 1409.5,682.5C 1393.66,682.17 1377.99,682.504 1362.5,683.5C 1324.2,733.315 1286.03,783.315 1248,833.5C 1236.74,791.27 1225.91,748.937 1215.5,706.5C 1213.46,699.394 1211.46,692.394 1209.5,685.5C 1193.53,683.515 1177.2,682.848 1160.5,683.5C 1147.85,737.279 1134.69,790.946 1121,844.5C 1108.85,791.228 1097.02,737.895 1085.5,684.5C 1077.03,683.168 1068.19,682.502 1059,682.5C 1049.99,682.5 1041.16,682.834 1032.5,683.5C 998.549,732.465 964.549,781.465 930.5,830.5C 921.174,781.221 912.174,731.887 903.5,682.5C 876.825,682.167 850.158,682.5 823.5,683.5C 821.674,687.307 820.674,691.307 820.5,695.5C 835.767,698.817 851.1,701.817 866.5,704.5C 874.876,752.878 883.542,801.211 892.5,849.5C 892.42,852.781 893.087,855.781 894.5,858.5C 895.981,864.757 896.981,871.09 897.5,877.5C 912.848,877.833 928.181,877.499 943.5,876.5C 953.189,862.434 962.856,848.434 972.5,834.5C 973.289,834.217 973.956,833.717 974.5,833C 1009.17,832.5 1043.83,832.333 1078.5,832.5C 1081.12,845.653 1083.45,858.986 1085.5,872.5C 1085.5,874.167 1085.5,875.833 1085.5,877.5C 1106.67,877.831 1127.67,877.497 1148.5,876.5C 1159.55,832.181 1170.71,787.847 1182,743.5C 1193.43,787.985 1204.26,832.652 1214.5,877.5C 1228.85,877.833 1243.18,877.499 1257.5,876.5C 1291.14,830.359 1324.97,784.359 1359,738.5C 1348.17,784.835 1337.01,831.169 1325.5,877.5C 1337.5,877.5 1349.5,877.5 1361.5,877.5C 1369.5,844.472 1377.5,811.472 1385.5,778.5C 1388.07,774.267 1389.9,769.601 1391,764.5C 1392.75,770.134 1392.91,775.801 1391.5,781.5C 1383.38,815.585 1375.04,849.585 1366.5,883.5C 1350.17,883.5 1333.83,883.5 1317.5,883.5C 1317.5,882.5 1317.5,881.5 1317.5,880.5C 1317.26,879.209 1317.6,878.209 1318.5,877.5C 1318.5,879.167 1318.5,880.833 1318.5,882.5C 1332.84,882.667 1347.17,882.5 1361.5,882C 1348.31,880.85 1334.98,880.016 1321.5,879.5C 1322.32,878.614 1323.32,878.281 1324.5,878.5C 1324.95,876.023 1324.28,874.023 1322.5,872.5C 1321.33,874.079 1320,875.412 1318.5,876.5C 1327.68,840.493 1336.51,804.493 1345,768.5C 1316.96,806.756 1288.79,844.922 1260.5,883C 1243.5,883.667 1226.5,883.667 1209.5,883C 1204.33,863.652 1199.66,844.152 1195.5,824.5C 1195.59,821.848 1194.92,819.515 1193.5,817.5C 1190.31,801.71 1186.48,786.043 1182,770.5C 1174,803.158 1166,835.825 1158,868.5C 1157.1,871.718 1155.93,874.718 1154.5,877.5C 1154.65,876.448 1154.48,875.448 1154,874.5C 1153.16,876.351 1152.33,878.184 1151.5,880C 1128.49,880.167 1105.49,880.667 1082.5,881.5C 1106.16,882.5 1129.82,882.833 1153.5,882.5C 1129.34,883.498 1105.01,883.831 1080.5,883.5C 1078.81,871.413 1076.81,859.413 1074.5,847.5C 1074.14,844.311 1073.47,841.311 1072.5,838.5C 1040.34,837.502 1008,837.168 975.5,837.5C 975.5,838.5 975.5,839.5 975.5,840.5C 966.224,854.869 956.557,869.036 946.5,883C 928.491,883.833 910.491,883.666 892.5,882.5C 891.754,881.264 891.421,879.93 891.5,878.5C 891.58,875.219 890.913,872.219 889.5,869.5C 888.197,859.769 886.53,850.103 884.5,840.5C 884.58,837.219 883.913,834.219 882.5,831.5C 875.165,791.161 867.832,750.828 860.5,710.5C 844.474,707.259 828.474,703.925 812.5,700.5C 813.846,693.422 815.513,686.422 817.5,679.5C 818.404,678.791 818.737,677.791 818.5,676.5C 835.167,676.5 851.833,676.5 868.5,676.5 Z"/></g>
<g><path style="opacity:1" fill="#4e7fae" d="M 185.5,679.5 C 191.658,678.834 197.991,678.5 204.5,678.5C 227.003,678.905 249.336,679.572 271.5,680.5C 242.829,680.476 214.162,680.143 185.5,679.5 Z"/></g>
<g><path style="opacity:1" fill="#306ca2" d="M 777.5,683.5 C 777.5,682.5 777.5,681.5 777.5,680.5C 760.497,680.333 743.497,680.5 726.5,681C 724.688,683.86 722.354,686.027 719.5,687.5C 720.906,684.586 722.906,682.086 725.5,680C 743.164,679.5 760.83,679.333 778.5,679.5C 778.768,681.099 778.434,682.432 777.5,683.5 Z"/></g>
<g><path style="opacity:1" fill="#70a7d4" d="M 1032.5,683.5 C 1041.16,682.834 1049.99,682.5 1059,682.5C 1068.19,682.502 1077.03,683.168 1085.5,684.5C 1067.91,683.514 1050.24,683.181 1032.5,683.5 Z"/></g>
<g><path style="opacity:1" fill="#72a8d3" d="M 1362.5,683.5 C 1377.99,682.504 1393.66,682.17 1409.5,682.5C 1409.77,684.099 1409.43,685.432 1408.5,686.5C 1408.5,685.5 1408.5,684.5 1408.5,683.5C 1393.17,683.5 1377.83,683.5 1362.5,683.5 Z"/></g>
<g><path style="opacity:1" fill="#0357a3" d="M 185.5,679.5 C 214.162,680.143 242.829,680.476 271.5,680.5C 279.694,727.605 288.361,774.605 297.5,821.5C 329.558,775.126 361.558,728.792 393.5,682.5C 413.001,680.553 432.668,679.886 452.5,680.5C 463.512,730.075 474.678,779.741 486,829.5C 497.785,779.646 510.285,729.98 523.5,680.5C 541.154,679.5 558.821,679.167 576.5,679.5C 588.955,728.529 601.455,777.529 614,826.5C 648.999,780.006 684.166,733.673 719.5,687.5C 722.354,686.027 724.688,683.86 726.5,681C 743.497,680.5 760.497,680.333 777.5,680.5C 777.5,681.5 777.5,682.5 777.5,683.5C 770.682,709.368 764.348,735.368 758.5,761.5C 783.328,762.498 808.328,762.831 833.5,762.5C 833.5,763.5 833.5,764.5 833.5,765.5C 830.056,778.66 826.723,791.827 823.5,805C 798.16,805.167 772.827,805.667 747.5,806.5C 741.316,830.125 735.316,853.791 729.5,877.5C 728.596,878.209 728.263,879.209 728.5,880.5C 714.5,880.5 700.5,880.5 686.5,880.5C 686.5,879.5 686.5,878.5 686.5,877.5C 697.002,836.13 707.169,794.797 717,753.5C 685.955,795.756 654.789,837.922 623.5,880C 607.837,880.5 592.17,880.667 576.5,880.5C 567.605,839.306 557.772,798.306 547,757.5C 539.694,784.664 533.027,811.997 527,839.5C 524.095,850.701 520.928,861.701 517.5,872.5C 516.71,873.609 516.21,874.942 516,876.5C 515.085,875.672 514.419,874.672 514,873.5C 513.505,875.473 513.338,877.473 513.5,879.5C 491.833,879.5 470.167,879.5 448.5,879.5C 448.768,877.901 448.434,876.568 447.5,875.5C 444.518,862.315 442.518,848.981 441.5,835.5C 407.832,835.333 374.165,835.5 340.5,836C 329.921,850.491 319.587,865.158 309.5,880C 292.837,880.5 276.17,880.667 259.5,880.5C 249.339,823.852 239.173,767.185 229,710.5C 228.626,709.584 228.126,708.75 227.5,708C 212.266,704.295 196.933,701.128 181.5,698.5C 182.726,692.144 184.059,685.811 185.5,679.5 Z"/></g>
<g><path style="opacity:1" fill="#2e6da3" d="M 452.5,680.5 C 432.668,679.886 413.001,680.553 393.5,682.5C 393.804,681.85 394.137,681.183 394.5,680.5C 413.996,679.172 433.329,679.172 452.5,680.5 Z"/></g>
<g><path style="opacity:1" fill="#f5f6f6" d="M 1032.5,683.5 C 1050.24,683.181 1067.91,683.514 1085.5,684.5C 1097.02,737.895 1108.85,791.228 1121,844.5C 1134.69,790.946 1147.85,737.279 1160.5,683.5C 1177.2,682.848 1193.53,683.515 1209.5,685.5C 1209.95,689.163 1210.45,692.83 1211,696.5C 1212.21,700.118 1213.71,703.452 1215.5,706.5C 1225.91,748.937 1236.74,791.27 1248,833.5C 1286.03,783.315 1324.2,733.315 1362.5,683.5C 1377.83,683.5 1393.17,683.5 1408.5,683.5C 1408.5,684.5 1408.5,685.5 1408.5,686.5C 1402.51,710.086 1396.85,733.753 1391.5,757.5C 1389.54,764.394 1387.54,771.394 1385.5,778.5C 1377.5,811.472 1369.5,844.472 1361.5,877.5C 1349.5,877.5 1337.5,877.5 1325.5,877.5C 1337.01,831.169 1348.17,784.835 1359,738.5C 1324.97,784.359 1291.14,830.359 1257.5,876.5C 1243.18,877.499 1228.85,877.833 1214.5,877.5C 1204.26,832.652 1193.43,787.985 1182,743.5C 1170.71,787.847 1159.55,832.181 1148.5,876.5C 1127.83,876.5 1107.17,876.5 1086.5,876.5C 1086.77,874.901 1086.43,873.568 1085.5,872.5C 1083.45,858.986 1081.12,845.653 1078.5,832.5C 1043.67,831.336 1008.67,831.169 973.5,832C 972.748,832.671 972.414,833.504 972.5,834.5C 962.856,848.434 953.189,862.434 943.5,876.5C 928.181,877.499 912.848,877.833 897.5,877.5C 896.981,871.09 895.981,864.757 894.5,858.5C 894.58,855.219 893.913,852.219 892.5,849.5C 883.542,801.211 874.876,752.878 866.5,704.5C 851.1,701.817 835.767,698.817 820.5,695.5C 820.674,691.307 821.674,687.307 823.5,683.5C 850.158,682.5 876.825,682.167 903.5,682.5C 912.174,731.887 921.174,781.221 930.5,830.5C 964.549,781.465 998.549,732.465 1032.5,683.5 Z"/></g>
<g><path style="opacity:1" fill="#b8d3e6" d="M 1209.5,685.5 C 1211.46,692.394 1213.46,699.394 1215.5,706.5C 1213.71,703.452 1212.21,700.118 1211,696.5C 1210.45,692.83 1209.95,689.163 1209.5,685.5 Z"/></g>
<g><path style="opacity:1" fill="#125aa1" d="M 1071.5,798.5 C 1068.71,799.477 1065.71,799.81 1062.5,799.5C 1064.72,797.92 1067.38,796.92 1070.5,796.5C 1068.34,794.991 1066.01,793.991 1063.5,793.5C 1048.68,794.496 1033.68,794.829 1018.5,794.5C 1018.28,796.664 1017.28,798.33 1015.5,799.5C 1009.17,799.5 1002.83,799.5 996.5,799.5C 1015.65,773.211 1034.82,746.878 1054,720.5C 1059.97,746.464 1065.8,772.464 1071.5,798.5 Z"/></g>
<g><path style="opacity:1" fill="#f4f5f6" d="M 1063.5,793.5 C 1045.49,793.833 1027.49,793.5 1009.5,792.5C 1023.53,773.64 1037.36,754.64 1051,735.5C 1055.69,754.722 1059.85,774.056 1063.5,793.5 Z"/></g>
<g><path style="opacity:1" fill="#85add2" d="M 922.5,751.5 C 923.913,754.219 924.58,757.219 924.5,760.5C 923.087,757.781 922.42,754.781 922.5,751.5 Z"/></g>
<g><path style="opacity:1" fill="#578ebe" d="M 758.5,761.5 C 783.833,761.5 809.167,761.5 834.5,761.5C 834.768,763.099 834.434,764.432 833.5,765.5C 833.5,764.5 833.5,763.5 833.5,762.5C 808.328,762.831 783.328,762.498 758.5,761.5 Z"/></g>
<g><path style="opacity:1" fill="#2e639d" d="M 1391.5,757.5 C 1391.26,761.875 1392.26,765.875 1394.5,769.5C 1394.13,773.774 1393.13,777.774 1391.5,781.5C 1392.91,775.801 1392.75,770.134 1391,764.5C 1389.9,769.601 1388.07,774.267 1385.5,778.5C 1387.54,771.394 1389.54,764.394 1391.5,757.5 Z"/></g>
<g><path style="opacity:1" fill="#f3f6f7" d="M 416.5,728.5 C 418.443,732.566 419.943,736.899 421,741.5C 424.993,759.804 428.826,778.138 432.5,796.5C 411.156,796.833 389.823,796.5 368.5,795.5C 384.525,773.148 400.525,750.815 416.5,728.5 Z"/></g>
<g><path style="opacity:1" fill="#0258a8" d="M 1063.5,793.5 C 1066.01,793.991 1068.34,794.991 1070.5,796.5C 1067.38,796.92 1064.72,797.92 1062.5,799.5C 1046.83,799.5 1031.17,799.5 1015.5,799.5C 1017.28,798.33 1018.28,796.664 1018.5,794.5C 1033.68,794.829 1048.68,794.496 1063.5,793.5 Z"/></g>
<g><path style="opacity:1" fill="#cad2d9" d="M 1071.5,798.5 C 1072.04,798.56 1072.38,798.893 1072.5,799.5C 1047,800.829 1021.67,800.829 996.5,799.5C 1002.83,799.5 1009.17,799.5 1015.5,799.5C 1031.17,799.5 1046.83,799.5 1062.5,799.5C 1065.71,799.81 1068.71,799.477 1071.5,798.5 Z"/></g>
<g><path style="opacity:1" fill="#79a2c8" d="M 1193.5,817.5 C 1194.92,819.515 1195.59,821.848 1195.5,824.5C 1194.08,822.485 1193.41,820.152 1193.5,817.5 Z"/></g>
<g><path style="opacity:1" fill="#2373bc" d="M 1078.5,832.5 C 1043.83,832.333 1009.17,832.5 974.5,833C 973.956,833.717 973.289,834.217 972.5,834.5C 972.414,833.504 972.748,832.671 973.5,832C 1008.67,831.169 1043.67,831.336 1078.5,832.5 Z"/></g>
<g><path style="opacity:1" fill="#235e90" d="M 1072.5,838.5 C 1040.15,837.841 1008.15,838.507 976.5,840.5C 976.167,840.5 975.833,840.5 975.5,840.5C 975.5,839.5 975.5,838.5 975.5,837.5C 1008,837.168 1040.34,837.502 1072.5,838.5 Z"/></g>
<g><path style="opacity:1" fill="#80abd5" d="M 882.5,831.5 C 883.913,834.219 884.58,837.219 884.5,840.5C 883.087,837.781 882.42,834.781 882.5,831.5 Z"/></g>
<g><path style="opacity:1" fill="#d7f3fd" d="M 1072.5,838.5 C 1073.47,841.311 1074.14,844.311 1074.5,847.5C 1072.63,845.365 1071.96,842.698 1072.5,839.5C 1040.43,839.174 1008.43,839.508 976.5,840.5C 1008.15,838.507 1040.15,837.841 1072.5,838.5 Z"/></g>
<g><path style="opacity:1" fill="#7da8d1" d="M 892.5,849.5 C 893.913,852.219 894.58,855.219 894.5,858.5C 893.087,855.781 892.42,852.781 892.5,849.5 Z"/></g>
<g><path style="opacity:1" fill="#7aa1c4" d="M 889.5,869.5 C 890.913,872.219 891.58,875.219 891.5,878.5C 890.087,875.781 889.42,872.781 889.5,869.5 Z"/></g>
<g><path style="opacity:1" fill="#98b9d6" d="M 1085.5,872.5 C 1086.43,873.568 1086.77,874.901 1086.5,876.5C 1107.17,876.5 1127.83,876.5 1148.5,876.5C 1127.67,877.497 1106.67,877.831 1085.5,877.5C 1085.5,875.833 1085.5,874.167 1085.5,872.5 Z"/></g>
<g><path style="opacity:1" fill="#22609c" d="M 517.5,872.5 C 517.768,875.119 517.435,877.619 516.5,880C 493.502,880.5 470.502,880.667 447.5,880.5C 447.5,878.833 447.5,877.167 447.5,875.5C 448.434,876.568 448.768,877.901 448.5,879.5C 470.167,879.5 491.833,879.5 513.5,879.5C 513.338,877.473 513.505,875.473 514,873.5C 514.419,874.672 515.085,875.672 516,876.5C 516.21,874.942 516.71,873.609 517.5,872.5 Z"/></g>
<g><path style="opacity:1" fill="#a9cbec" d="M 686.5,877.5 C 686.5,878.5 686.5,879.5 686.5,880.5C 700.5,880.5 714.5,880.5 728.5,880.5C 728.263,879.209 728.596,878.209 729.5,877.5C 729.66,879.199 729.494,880.866 729,882.5C 714.579,881.51 700.079,881.176 685.5,881.5C 685.232,879.901 685.566,878.568 686.5,877.5 Z"/></g>
<g><path style="opacity:1" fill="#0059ad" d="M 1154.5,877.5 C 1154.5,878.833 1154.5,880.167 1154.5,881.5C 1153.83,881.5 1153.5,881.833 1153.5,882.5C 1129.82,882.833 1106.16,882.5 1082.5,881.5C 1105.49,880.667 1128.49,880.167 1151.5,880C 1152.33,878.184 1153.16,876.351 1154,874.5C 1154.48,875.448 1154.65,876.448 1154.5,877.5 Z"/></g>
<g><path style="opacity:1" fill="#0058ac" d="M 1318.5,877.5 C 1318.5,877.167 1318.5,876.833 1318.5,876.5C 1320,875.412 1321.33,874.079 1322.5,872.5C 1324.28,874.023 1324.95,876.023 1324.5,878.5C 1323.32,878.281 1322.32,878.614 1321.5,879.5C 1334.98,880.016 1348.31,880.85 1361.5,882C 1347.17,882.5 1332.84,882.667 1318.5,882.5C 1318.5,880.833 1318.5,879.167 1318.5,877.5 Z"/></g>
<g><path style="opacity:1" fill="#8cb0ce" d="M 1154.5,881.5 C 1154.5,882.5 1154.5,883.5 1154.5,884.5C 1129.66,884.831 1104.99,884.498 1080.5,883.5C 1105.01,883.831 1129.34,883.498 1153.5,882.5C 1153.5,881.833 1153.83,881.5 1154.5,881.5 Z"/></g>
<g><path style="opacity:1" fill="#8cb1cf" d="M 1317.5,880.5 C 1317.5,881.5 1317.5,882.5 1317.5,883.5C 1333.83,883.5 1350.17,883.5 1366.5,883.5C 1350.01,884.497 1333.34,884.83 1316.5,884.5C 1316.23,882.901 1316.57,881.568 1317.5,880.5 Z"/></g>
<g><path style="opacity:1" fill="#2b2b2b" d="M 1566.5,1415.5 C 1561.08,1461.4 1540.75,1499.23 1505.5,1529C 1479.24,1550.24 1449.24,1562.74 1415.5,1566.5C 1413.14,1566.66 1410.81,1566.5 1408.5,1566C 1410.71,1565.81 1412.71,1565.31 1414.5,1564.5C 1432.19,1562.55 1449.19,1558.05 1465.5,1551C 1522.01,1523.18 1555.01,1478.02 1564.5,1415.5C 1565.29,1414.39 1565.79,1413.06 1566,1411.5C 1566.49,1412.79 1566.66,1414.13 1566.5,1415.5 Z"/></g>
<g><path style="opacity:1" fill="#3d3d3d" d="M 34.5,1414.5 C 36.4517,1432.19 40.9517,1449.19 48,1465.5C 77.8567,1525.7 126.357,1559.03 193.5,1565.5C 597.5,1566.17 1001.5,1566.83 1405.5,1567.5C 1001,1568.67 596.334,1568.83 191.5,1568C 129.134,1561.59 82.3009,1531.42 51,1477.5C 40.7225,1458.16 34.5558,1437.49 32.5,1415.5C 32.3354,1412.48 32.502,1409.48 33,1406.5C 33.1829,1409.36 33.6829,1412.03 34.5,1414.5 Z"/></g>
<g><path style="opacity:1" fill="#393939" d="M 1414.5,1564.5 C 1412.71,1565.31 1410.71,1565.81 1408.5,1566C 1410.81,1566.5 1413.14,1566.66 1415.5,1566.5C 1412.38,1567.48 1409.04,1567.81 1405.5,1567.5C 1001.5,1566.83 597.5,1566.17 193.5,1565.5C 600.51,1565.83 1007.51,1565.5 1414.5,1564.5 Z"/></g>
</svg>
